# xmcd
#
# Track frame offsets:
#	150
#	14385
#	29904
#	42800
#	56931
#	73227
#	89812
#	105758
#	120728
#	140572
#	157788
#	177096
#	197153
#	212410
#	227493
#	242570
#	257604
#	273937
#	287375
#	302401
#
# Disc length: 4266 seconds
#
# Revision: 1
# Processed by: cddbd v1.5.2PL0 Copyright (c) Steve Scherf et al.
# Submitted via: audiograbber 1.82.02
#
DISCID=1310a814
DTITLE=Various Artist  - Country Radio - November 2016
DYEAR=2016
DGENRE=Country
TTITLE0=Moonshine Man - Trouble
TTITLE1=Tyler Farr - Our Town
TTITLE2=Brooke Eden - Diamonds
TTITLE3=Dan and Shay - How Not To
TTITLE4=Micks - New Life
TTITLE5=Levi Hart - Everything
TTITLE6=Jennifer Nettles - Hey Heartbreak
TTITLE7=Jon Pardi - Dirt On My Boots
TTITLE8=Margo Price - Four Years Of Chances
TTITLE9=Colt Ford - 4 Lane Gone
TTITLE10=Ronnie Dunn and Kix Brooks - Damn Drunk
TTITLE11=Drew Baldridge - Rebound
TTITLE12=David Nail and Brothers Osborne - Good At Tonight
TTITLE13=Jessie James Decker - Lights Down Low
TTITLE14=Morgan Wallen - Way I Talk, The
TTITLE15=Carrie Underwood - Dirty Laundry
TTITLE16=Luke Combs - Hurricane
TTITLE17=Frankie Ballard - Cigarette
TTITLE18=Jordan Rager - Now That I Know Your Name
TTITLE19=Brandy Clark - Love Can Go To Hell
EXTD=
EXTT0=
EXTT1=
EXTT2=
EXTT3=
EXTT4=
EXTT5=
EXTT6=
EXTT7=
EXTT8=
EXTT9=
EXTT10=
EXTT11=
EXTT12=
EXTT13=
EXTT14=
EXTT15=
EXTT16=
EXTT17=
EXTT18=
EXTT19=
PLAYORDER=
